<svg xmlns="http://www.w3.org/2000/svg" id="Layer_1" width="36" height="36" viewBox="0 0 36 36">
  <path d="M15.4 17.6h5.2c1.5 0 2.6-1.2 2.6-2.7v-5c0-1.4-1.2-2.5-2.6-2.7-.9-.1-1.8-.2-2.7-.2-.9 0-1.7.1-2.5.2-2.2.4-2.6 1.2-2.6 2.7v1.9H18v.7h-7.2c-1.5 0-2.9.9-3.3 2.7-.5 2-.5 3.2 0 5.3.4 1.6 1.3 2.6 2.8 2.6h1.8v-2.3c0-1.7 1.5-3.2 3.3-3.2zm-.4-7c-.5 0-1-.4-1-1s.4-1 1-1c.5 0 1 .4 1 1s-.4 1-1 1zm13.5 4.7c-.4-1.5-1.1-2.7-2.6-2.7H24v2.3c0 1.8-1.6 3.2-3.3 3.2h-5.2c-1.4 0-2.6 1.3-2.6 2.8v5c0 1.4 1.2 2.3 2.6 2.7 1.7.5 3.2.6 5.2 0 1.3-.4 2.6-1.2 2.6-2.7v-2H18v-.7h7.9c1.5 0 2.1-1 2.6-2.6.5-1.7.5-3.2 0-5.3zm-7.6 10c.5 0 1 .4 1 1s-.4 1-1 1c-.5 0-1-.4-1-1 .1-.6.5-1 1-1z" style="fill:#fff"/>
</svg>
